<?xml version="1.0" encoding="utf-8"?>
<!-- Generator: Adobe Illustrator 19.1.0, SVG Export Plug-In . SVG Version: 6.00 Build 0)  -->
<svg version="1.1" id="Layer_1" xmlns="http://www.w3.org/2000/svg" xmlns:xlink="http://www.w3.org/1999/xlink"
	 viewBox="0 0 31 31" xml:space="preserve">
<g>
	<path d="M10.2,8.6h5.5c1.1,0,1.9,0,2.5,0.1c0.5,0.1,1,0.3,1.4,0.6c0.4,0.3,0.8,0.7,1.1,1.2c0.3,0.5,0.4,1,0.4,1.6
		c0,0.6-0.2,1.2-0.5,1.8c-0.3,0.5-0.8,0.9-1.4,1.2c0.8,0.2,1.5,0.7,1.9,1.3c0.5,0.6,0.7,1.3,0.7,2.1c0,0.6-0.1,1.2-0.4,1.8
		c-0.3,0.6-0.7,1.1-1.2,1.4c-0.5,0.4-1.1,0.6-1.9,0.7c-0.5,0.1-1.6,0.1-3.4,0.1h-4.7V8.6z M13,10.9v3.2h1.8c1.1,0,1.8,0,2,0
		c0.5-0.1,0.9-0.2,1.1-0.5c0.3-0.3,0.4-0.6,0.4-1.1c0-0.4-0.1-0.8-0.4-1c-0.2-0.3-0.6-0.4-1.1-0.5c-0.3,0-1.1,0-2.4,0H13z M13,16.4
		v3.7h2.6c1,0,1.6,0,1.9-0.1c0.4-0.1,0.8-0.3,1-0.6c0.3-0.3,0.4-0.7,0.4-1.2c0-0.4-0.1-0.8-0.3-1.1c-0.2-0.3-0.5-0.5-0.9-0.6
		c-0.4-0.1-1.2-0.2-2.5-0.2H13z"/>
	<path d="M15.6,0C7,0,0.1,7,0.1,15.5S7,31,15.6,31s15.5-7,15.5-15.5S24.1,0,15.6,0z M30,15.5c0,8-6.5,14.4-14.4,14.4
		S1.1,23.5,1.1,15.5S7.6,1.1,15.6,1.1S30,7.5,30,15.5z"/>
</g>
</svg>
