<?xml version="1.0" encoding="utf-8"?>
<!-- Generator: Adobe Illustrator 19.1.0, SVG Export Plug-In . SVG Version: 6.00 Build 0)  -->
<svg version="1.1" id="Layer_1" xmlns="http://www.w3.org/2000/svg" xmlns:xlink="http://www.w3.org/1999/xlink"
	 viewBox="0 0 31 31" xml:space="preserve">
<g>
	<path d="M16.5,12.8v-1.1c0-0.5,0.4-0.7,0.6-0.7c0.2,0,1.6,0,1.6,0V8.6h-2.1c-2.4,0-2.9,1.8-2.9,2.9v1.3h-1.4v1.7v1.1
		h1.4c0,3.1,0,6.9,0,6.9h2.8c0,0,0-3.8,0-6.9h2.1l0.1-1.1l0.2-1.7H16.5z"/>
	<path d="M15.5,0.1C7,0.1,0,7.1,0,15.6s7,15.5,15.5,15.5S31,24.1,31,15.6S24,0.1,15.5,0.1z M29.9,15.6
		c0,8-6.5,14.4-14.4,14.4c-8,0-14.4-6.5-14.4-14.4c0-8,6.5-14.4,14.4-14.4C23.5,1.1,29.9,7.6,29.9,15.6z"/>
</g>
</svg>
