<?xml version="1.0" encoding="utf-8"?>
<!-- Generator: Adobe Illustrator 19.1.0, SVG Export Plug-In . SVG Version: 6.00 Build 0)  -->
<svg version="1.1" id="Layer_1" xmlns="http://www.w3.org/2000/svg" xmlns:xlink="http://www.w3.org/1999/xlink"
	 viewBox="0 0 31 31" xml:space="preserve">
<g>
	<path class="st2" d="M21.6,18.1c-0.5,0-0.9,0.4-0.9,0.9v1.8H10.1V19c0-0.5-0.4-0.9-0.9-0.9S8.2,18.5,8.2,19v2.8
		c0,0.5,0.4,0.9,0.9,0.9h12.5c0.5,0,0.9-0.4,0.9-0.9V19C22.6,18.5,22.2,18.1,21.6,18.1z" fill="#fff"/>
	<path class="st2" d="M14.5,18.5C14.5,18.5,14.6,18.5,14.5,18.5C14.6,18.5,14.6,18.5,14.5,18.5c0.2,0.1,0.2,0.2,0.3,0.2c0,0,0,0,0,0
		c0,0,0,0,0,0c0,0,0.1,0,0.1,0c0,0,0,0,0.1,0c0,0,0.1,0,0.1,0c0,0,0.1,0,0.1,0l0,0l0,0c0,0,0.1,0,0.1,0c0,0,0.1,0,0.1,0
		c0,0,0,0,0.1,0c0,0,0.1,0,0.1,0c0,0,0,0,0,0c0,0,0,0,0,0c0.1,0,0.1-0.1,0.2-0.1c0,0,0,0,0,0c0,0,0,0,0,0l3.6-3.6
		c0.4-0.4,0.4-0.9,0-1.3c-0.4-0.4-0.9-0.4-1.3,0l-2,2V8.4c0-0.5-0.4-0.9-0.9-0.9c-0.5,0-0.9,0.4-0.9,0.9v7.2l-2-2
		c-0.4-0.4-0.9-0.4-1.3,0c-0.4,0.4-0.4,0.9,0,1.3L14.5,18.5z" fill="#fff"/>
	<path class="st2" d="M15.3,0C6.8,0-0.2,7-0.2,15.5S6.8,31,15.3,31s15.5-7,15.5-15.5S23.9,0,15.3,0z M29.7,15.5
		c0,8-6.5,14.4-14.4,14.4c-8,0-14.4-6.5-14.4-14.4c0-8,6.5-14.4,14.4-14.4C23.3,1.1,29.7,7.6,29.7,15.5z" fill="#fff"/>
</g>
</svg>
