<?xml version="1.0" encoding="utf-8"?>
<!-- Generator: Adobe Illustrator 19.1.0, SVG Export Plug-In . SVG Version: 6.00 Build 0)  -->
<svg version="1.1" id="Layer_1" xmlns="http://www.w3.org/2000/svg" xmlns:xlink="http://www.w3.org/1999/xlink"
	 viewBox="0 0 31 31" xml:space="preserve">
<g>
	<path d="M18.5,8.5h-5.9c-2.2,0-4,1.8-4,4v5.9c0,2.2,1.8,4,4,4h5.9c2.2,0,4-1.8,4-4v-5.9C22.5,10.3,20.7,8.5,18.5,8.5
		 M21.2,18.5c0,1.5-1.2,2.7-2.7,2.7h-6c-1.5,0-2.7-1.2-2.7-2.7v-6c0-1.5,1.2-2.7,2.7-2.7h6c1.5,0,2.7,1.2,2.7,2.7V18.5z"/>
	<path d="M15.5,11.9c-2,0-3.6,1.6-3.6,3.6c0,2,1.6,3.6,3.6,3.6c2,0,3.6-1.6,3.6-3.6C19.1,13.5,17.5,11.9,15.5,11.9
		 M15.5,17.8c-1.3,0-2.3-1-2.3-2.3c0-1.3,1-2.3,2.3-2.3c1.3,0,2.3,1,2.3,2.3C17.9,16.8,16.8,17.8,15.5,17.8"/>
	<path d="M19.2,10.9c-0.5,0-0.8,0.4-0.8,0.8c0,0.5,0.4,0.8,0.8,0.8c0.5,0,0.8-0.4,0.8-0.8
		C20.1,11.3,19.7,10.9,19.2,10.9"/>
	<path d="M15.5,0C7,0,0,7,0,15.5S7,31,15.5,31S31,24,31,15.5S24.1,0,15.5,0z M15.5,29.9c-8,0-14.4-6.5-14.4-14.4
		C1.1,7.5,7.6,1,15.5,1C23.5,1,30,7.5,30,15.5C30,23.4,23.5,29.9,15.5,29.9z"/>
</g>
</svg>
