<?xml version="1.0" encoding="utf-8"?>
<!-- Generator: Adobe Illustrator 19.1.0, SVG Export Plug-In . SVG Version: 6.00 Build 0)  -->
<svg version="1.1" id="Layer_1" xmlns="http://www.w3.org/2000/svg" xmlns:xlink="http://www.w3.org/1999/xlink"
	 viewBox="0 0 31 31" xml:space="preserve">

<g>
	<path d="M19.2,18.9h-0.3c-0.2,0-0.3,0-0.5,0c-0.3,0-0.6,0-0.9,0h-1.9c0,0-0.1,0-0.1,0c-0.5-0.1-1-0.2-1.3-0.5
		c-0.6-0.5-0.5-1.8-0.5-2v-1h4.9c0,0,2,0.1,2-1.8c0-1.9-2.2-1.7-2.2-1.7h-4.8V10c0-0.8-0.7-1.5-1.5-1.5h-0.4c-0.8,0-1.5,0.7-1.5,1.5
		v6.5c0,0-0.2,3,1.2,4.4c1.1,1.1,2.2,1.4,3.8,1.5c0.1,0,0.2,0,0.3,0h3.6c0.8,0,1.5-0.7,1.5-1.5v-0.5C20.7,19.6,20,18.9,19.2,18.9z"
		/>
	<path d="M15.5,0C7,0,0,7,0,15.5S7,31,15.5,31S31,24,31,15.5S24,0,15.5,0z M15.5,29.9c-8,0-14.4-6.5-14.4-14.4
		C1.1,7.5,7.5,1,15.5,1c8,0,14.4,6.5,14.4,14.4C29.9,23.4,23.5,29.9,15.5,29.9z"/>
</g>
</svg>
