<?xml version="1.0" encoding="utf-8"?>
<!-- Generator: Adobe Illustrator 19.1.0, SVG Export Plug-In . SVG Version: 6.00 Build 0)  -->
<svg version="1.1" id="Layer_1" xmlns="http://www.w3.org/2000/svg" xmlns:xlink="http://www.w3.org/1999/xlink"
	 viewBox="0 0 31 31" xml:space="preserve">
<g>
	<path d="M20.2,10.7H11c-1.7,0-2.5,1.4-2.5,3.2v3.3c0,1.7,0.8,3.2,2.5,3.2h9c1.7,0,2.3-1.4,2.3-3.2v-3.3
		C22.4,12.1,21.9,10.7,20.2,10.7z M14.1,17.6v-3.9l3.3,2.2L14.1,17.6z" fill="#fff"/>
	<path class="white" d="M15.5,0.1C7,0.1,0,7,0,15.6s7,15.5,15.5,15.5S31,24.1,31,15.6S24,0.1,15.5,0.1z M29.9,15.5
		c0,8-6.5,14.4-14.4,14.4c-8,0-14.4-6.5-14.4-14.4c0-8,6.5-14.4,14.4-14.4C23.5,1.1,29.9,7.6,29.9,15.5z" fill="#fff"/>
</g>
</svg>
