<?xml version="1.0" encoding="utf-8"?>
<!-- Generator: Adobe Illustrator 19.1.0, SVG Export Plug-In . SVG Version: 6.00 Build 0)  -->
<svg version="1.1" id="Layer_1" xmlns="http://www.w3.org/2000/svg" xmlns:xlink="http://www.w3.org/1999/xlink" x="0px" y="0px"
	 viewBox="0 0 120 30" xml:space="preserve">
<style type="text/css">
	.st0{fill:#ffffff;}
</style>
<path class="st0" d="M57.4,21.8c-1.1,0-2.1-0.1-2.9-0.4c-0.8-0.2-1.5-0.6-2-1c-0.5-0.4-1-1-1.3-1.6c-0.3-0.7-0.6-1.4-0.7-2.1
	c-0.1-0.7-0.2-1.6-0.2-2.5v-6c0-0.9,0.1-1.8,0.2-2.5c0.1-0.7,0.4-1.4,0.7-2.1c0.3-0.7,0.8-1.2,1.3-1.6c0.5-0.4,1.2-0.8,2-1
	c0.8-0.2,1.8-0.4,2.9-0.4c1.2,0,2.3,0.1,3.1,0.4c0.9,0.3,1.6,0.7,2.1,1.3c0.5,0.6,0.9,1.2,1.2,1.9c0.3,0.7,0.4,1.6,0.5,2.6
	c0,0.1,0,0.4,0,0.7h-3.7V6.8c0-0.4,0-0.8-0.1-1.1c0-0.3-0.1-0.6-0.2-0.9c-0.1-0.3-0.2-0.6-0.3-0.8c-0.2-0.2-0.3-0.4-0.6-0.6
	c-0.2-0.2-0.5-0.3-0.9-0.4C58.2,3,57.8,3,57.4,3c-0.6,0-1.1,0.1-1.5,0.2c-0.4,0.2-0.8,0.4-1,0.6c-0.2,0.2-0.4,0.6-0.6,1
	C54.1,5.2,54,5.6,54,6c0,0.4-0.1,0.9-0.1,1.5v7.5c0,0.5,0,0.9,0.1,1.4c0.1,0.4,0.2,0.8,0.3,1.2c0.2,0.4,0.4,0.7,0.6,1
	c0.2,0.3,0.6,0.5,1,0.7c0.4,0.2,0.9,0.3,1.4,0.3c0.6,0,1-0.1,1.4-0.3c0.4-0.2,0.7-0.4,0.9-0.7c0.2-0.3,0.4-0.6,0.5-1
	c0.1-0.4,0.2-0.8,0.3-1.2c0-0.4,0.1-0.8,0.1-1.4v-0.7h3.7v0.7c0,1.1-0.1,2-0.4,2.8c-0.2,0.8-0.6,1.5-1.1,2.2
	c-0.5,0.6-1.2,1.1-2.2,1.4C59.7,21.7,58.6,21.8,57.4,21.8z"/>
<path d="M73.5,21.8c-1.3,0-2.4-0.2-3.4-0.5c-0.9-0.3-1.7-0.8-2.2-1.4c-0.6-0.6-1-1.3-1.2-2.2c-0.3-0.8-0.4-1.8-0.4-2.9V7.3
	c0-1.1,0.1-2.1,0.4-2.9c0.3-0.8,0.7-1.5,1.2-2.1c0.6-0.6,1.3-1.1,2.2-1.4c0.9-0.3,2.1-0.5,3.4-0.5c2.5,0,4.4,0.6,5.5,1.7
	c1.1,1.2,1.7,2.9,1.7,5.1v7.6c0,1.1-0.1,2-0.4,2.9c-0.3,0.8-0.7,1.6-1.2,2.2c-0.6,0.6-1.3,1.1-2.2,1.4
	C75.9,21.7,74.8,21.8,73.5,21.8z M70.8,18.4c0.5,0.6,1.4,0.9,2.7,0.9s2.2-0.3,2.7-0.9c0.5-0.6,0.7-1.6,0.7-2.8V6.6
	c0-1.2-0.2-2.1-0.7-2.7C75.7,3.3,74.8,3,73.5,3s-2.2,0.3-2.7,0.9C70.3,4.5,70,5.4,70,6.6v9.1C70,16.9,70.3,17.8,70.8,18.4z"/>
<path d="M83.9,21.6V0.7h6.5c4.3,0,6.5,2,6.5,6c0,1.7-0.6,3-1.7,3.9c-1.1,0.9-2.7,1.3-4.8,1.3h-2.8v9.7H83.9z M87.6,9.7h0.9
	c0.8,0,1.5,0,2.1-0.1c0.5-0.1,1-0.2,1.4-0.4c0.4-0.2,0.7-0.5,0.9-0.9c0.2-0.4,0.3-0.9,0.3-1.5c0-0.7-0.1-1.4-0.2-1.8
	c-0.1-0.5-0.4-0.8-0.7-1.1c-0.4-0.3-0.8-0.5-1.4-0.6C90.3,3,89.5,3,88.6,3h-0.9V9.7z"/>
<path d="M99.2,21.6V0.7h3.7v20.9H99.2z"/>
<path d="M106.9,21.6V0.7h2.8l6.5,12.9V0.7h3.7v20.9h-2.6l-6.7-13.9v13.9H106.9z"/>
<g>
	<path d="M52.8,30.2c-0.3,0-0.6-0.1-0.9-0.2c-0.3-0.1-0.5-0.3-0.7-0.5c-0.2-0.2-0.4-0.5-0.5-0.8c-0.1-0.3-0.2-0.7-0.2-1.1
		c0-0.4,0.1-0.8,0.2-1.1c0.1-0.3,0.3-0.6,0.5-0.8c0.2-0.2,0.4-0.4,0.7-0.5c0.3-0.1,0.6-0.2,0.9-0.2c0.3,0,0.5,0,0.8,0.1
		c0.3,0.1,0.5,0.2,0.7,0.3v0.9h0c-0.1,0-0.1-0.1-0.2-0.2c-0.1-0.1-0.2-0.1-0.3-0.2c-0.1-0.1-0.2-0.1-0.4-0.2c-0.2,0-0.3-0.1-0.4-0.1
		c-0.4,0-0.8,0.2-1,0.5c-0.3,0.3-0.4,0.8-0.4,1.4c0,0.6,0.1,1,0.4,1.4c0.2,0.3,0.6,0.5,1,0.5c0.3,0,0.5-0.1,0.8-0.2
		c0.2-0.1,0.5-0.3,0.6-0.4h0v0.9c-0.1,0-0.2,0.1-0.3,0.1c-0.1,0.1-0.2,0.1-0.3,0.1c-0.1,0-0.3,0.1-0.4,0.1
		C53.1,30.2,53,30.2,52.8,30.2z"/>
	<path d="M59.5,27.7c0,0.8-0.2,1.5-0.6,1.9c-0.4,0.4-0.9,0.7-1.6,0.7c-0.7,0-1.2-0.2-1.6-0.7c-0.4-0.5-0.6-1.1-0.6-1.9
		c0-0.8,0.2-1.5,0.6-1.9c0.4-0.5,0.9-0.7,1.6-0.7c0.7,0,1.2,0.2,1.6,0.7C59.3,26.2,59.5,26.8,59.5,27.7z M58.7,27.7
		c0-0.6-0.1-1.1-0.3-1.4c-0.2-0.3-0.6-0.5-1-0.5c-0.4,0-0.8,0.2-1,0.5C56.1,26.6,56,27,56,27.7c0,0.6,0.1,1.1,0.3,1.4
		c0.2,0.3,0.6,0.5,1,0.5c0.4,0,0.8-0.2,1-0.5C58.5,28.8,58.7,28.3,58.7,27.7z"/>
	<path d="M66.4,30.1v-2.8c0-0.2,0-0.4,0-0.6c0-0.2-0.1-0.3-0.1-0.4C66.2,26.1,66.1,26,66,26c-0.1-0.1-0.3-0.1-0.4-0.1
		c-0.2,0-0.4,0.1-0.5,0.2c-0.2,0.1-0.4,0.3-0.6,0.5c0,0,0,0.1,0,0.2c0,0.1,0,0.1,0,0.2v3.2h-0.8v-2.8c0-0.2,0-0.4,0-0.6
		c0-0.2-0.1-0.3-0.1-0.4c-0.1-0.1-0.1-0.2-0.3-0.3c-0.1-0.1-0.3-0.1-0.4-0.1c-0.2,0-0.4,0.1-0.6,0.2c-0.2,0.1-0.4,0.3-0.6,0.4v3.7
		h-0.8v-4.9h0.8v0.5c0.2-0.2,0.4-0.4,0.6-0.5c0.2-0.1,0.4-0.2,0.7-0.2c0.3,0,0.5,0.1,0.8,0.2c0.2,0.1,0.4,0.3,0.5,0.6
		c0.2-0.3,0.5-0.5,0.7-0.6c0.2-0.1,0.5-0.2,0.8-0.2c0.2,0,0.4,0,0.6,0.1c0.2,0.1,0.3,0.2,0.5,0.3c0.1,0.1,0.2,0.3,0.3,0.6
		c0.1,0.2,0.1,0.5,0.1,0.8v3.2H66.4z"/>
	<path d="M74.4,30.1v-2.8c0-0.2,0-0.4,0-0.6c0-0.2-0.1-0.3-0.1-0.4C74.2,26.1,74.1,26,74,26c-0.1-0.1-0.3-0.1-0.4-0.1
		c-0.2,0-0.4,0.1-0.5,0.2c-0.2,0.1-0.4,0.3-0.6,0.5c0,0,0,0.1,0,0.2c0,0.1,0,0.1,0,0.2v3.2h-0.8v-2.8c0-0.2,0-0.4,0-0.6
		c0-0.2-0.1-0.3-0.1-0.4c-0.1-0.1-0.1-0.2-0.3-0.3c-0.1-0.1-0.3-0.1-0.4-0.1c-0.2,0-0.4,0.1-0.6,0.2c-0.2,0.1-0.4,0.3-0.6,0.4v3.7
		h-0.8v-4.9h0.8v0.5c0.2-0.2,0.4-0.4,0.6-0.5c0.2-0.1,0.4-0.2,0.7-0.2c0.3,0,0.5,0.1,0.8,0.2c0.2,0.1,0.4,0.3,0.5,0.6
		c0.2-0.3,0.5-0.5,0.7-0.6c0.2-0.1,0.5-0.2,0.8-0.2c0.2,0,0.4,0,0.6,0.1c0.2,0.1,0.3,0.2,0.5,0.3c0.1,0.1,0.2,0.3,0.3,0.6
		c0.1,0.2,0.1,0.5,0.1,0.8v3.2H74.4z"/>
	<path d="M80.6,30.1h-0.8v-0.5c-0.3,0.2-0.5,0.4-0.7,0.5c-0.2,0.1-0.5,0.2-0.8,0.2c-0.2,0-0.4,0-0.6-0.1c-0.2-0.1-0.4-0.2-0.5-0.3
		c-0.1-0.2-0.2-0.3-0.3-0.6c-0.1-0.2-0.1-0.5-0.1-0.8v-3.2h0.8V28c0,0.3,0,0.5,0,0.6c0,0.2,0.1,0.3,0.1,0.5c0.1,0.1,0.2,0.2,0.3,0.3
		s0.3,0.1,0.5,0.1c0.2,0,0.4-0.1,0.6-0.2s0.4-0.3,0.6-0.4v-3.7h0.8V30.1z"/>
	<path d="M86.1,30.1h-0.8v-2.8c0-0.2,0-0.4,0-0.6c0-0.2-0.1-0.4-0.1-0.5C85.1,26.1,85,26,84.9,26c-0.1-0.1-0.3-0.1-0.5-0.1
		c-0.2,0-0.4,0.1-0.6,0.2c-0.2,0.1-0.4,0.3-0.6,0.4v3.7h-0.8v-4.9h0.8v0.5c0.2-0.2,0.5-0.4,0.7-0.5c0.2-0.1,0.5-0.2,0.8-0.2
		c0.5,0,0.9,0.2,1.1,0.5c0.3,0.3,0.4,0.8,0.4,1.4V30.1z"/>
	<path d="M88.6,24.4h-0.9v-0.9h0.9V24.4z M88.6,30.1h-0.8v-4.9h0.8V30.1z"/>
	<path d="M92.2,30.2c-0.3,0-0.6-0.1-0.9-0.2c-0.3-0.1-0.5-0.3-0.7-0.5c-0.2-0.2-0.4-0.5-0.5-0.8c-0.1-0.3-0.2-0.7-0.2-1.1
		c0-0.4,0.1-0.8,0.2-1.1c0.1-0.3,0.3-0.6,0.5-0.8c0.2-0.2,0.4-0.4,0.7-0.5c0.3-0.1,0.6-0.2,0.9-0.2c0.3,0,0.5,0,0.8,0.1
		c0.3,0.1,0.5,0.2,0.7,0.3v0.9h0c-0.1,0-0.1-0.1-0.2-0.2c-0.1-0.1-0.2-0.1-0.3-0.2c-0.1-0.1-0.2-0.1-0.4-0.2c-0.2,0-0.3-0.1-0.4-0.1
		c-0.4,0-0.8,0.2-1,0.5c-0.3,0.3-0.4,0.8-0.4,1.4c0,0.6,0.1,1,0.4,1.4c0.2,0.3,0.6,0.5,1,0.5c0.3,0,0.5-0.1,0.8-0.2
		c0.2-0.1,0.5-0.3,0.6-0.4h0v0.9c-0.1,0-0.2,0.1-0.3,0.1c-0.1,0.1-0.2,0.1-0.3,0.1c-0.1,0-0.3,0.1-0.4,0.1S92.4,30.2,92.2,30.2z"/>
	<path d="M97.6,29.6c-0.1,0-0.2,0.1-0.3,0.2S97.1,30,97,30c-0.1,0.1-0.3,0.1-0.4,0.2c-0.1,0-0.3,0.1-0.6,0.1c-0.2,0-0.4,0-0.6-0.1
		s-0.3-0.2-0.5-0.3c-0.1-0.1-0.2-0.3-0.3-0.5c-0.1-0.2-0.1-0.4-0.1-0.6c0-0.3,0.1-0.6,0.2-0.9s0.4-0.4,0.7-0.6
		c0.3-0.1,0.6-0.2,1-0.3c0.4,0,0.8-0.1,1.2-0.1v-0.2c0-0.2,0-0.3-0.1-0.5c-0.1-0.1-0.1-0.2-0.2-0.3c-0.1-0.1-0.2-0.1-0.4-0.1
		c-0.2,0-0.3,0-0.5,0c-0.2,0-0.4,0-0.7,0.1c-0.3,0.1-0.5,0.1-0.8,0.2h0v-0.8c0.2,0,0.4-0.1,0.7-0.1c0.3-0.1,0.6-0.1,0.8-0.1
		c0.3,0,0.6,0,0.9,0.1c0.2,0.1,0.4,0.1,0.6,0.3c0.2,0.1,0.3,0.3,0.4,0.5c0.1,0.2,0.1,0.5,0.1,0.8v3.4h-0.8V29.6z M97.6,28.9v-1.4
		c-0.2,0-0.4,0-0.7,0.1c-0.3,0-0.5,0.1-0.7,0.1c-0.2,0.1-0.4,0.2-0.5,0.3c-0.1,0.1-0.2,0.3-0.2,0.6c0,0.3,0.1,0.5,0.2,0.6
		c0.2,0.1,0.4,0.2,0.7,0.2c0.3,0,0.5-0.1,0.7-0.2C97.2,29.2,97.4,29.1,97.6,28.9z"/>
	<path d="M101.5,30.2c-0.5,0-0.8-0.1-1.1-0.4s-0.4-0.7-0.4-1.2v-2.7h-0.6v-0.7h0.6v-1.4h0.8v1.4h1.5v0.7h-1.5v2.3c0,0.2,0,0.4,0,0.6
		c0,0.1,0,0.3,0.1,0.4c0,0.1,0.1,0.2,0.2,0.2c0.1,0.1,0.3,0.1,0.5,0.1c0.1,0,0.3,0,0.4-0.1c0.1,0,0.2-0.1,0.3-0.1h0v0.7
		c-0.2,0-0.3,0.1-0.5,0.1C101.8,30.2,101.6,30.2,101.5,30.2z"/>
	<path d="M104.4,24.4h-0.9v-0.9h0.9V24.4z M104.3,30.1h-0.8v-4.9h0.8V30.1z"/>
	<path d="M110,27.7c0,0.8-0.2,1.5-0.6,1.9c-0.4,0.4-0.9,0.7-1.6,0.7c-0.7,0-1.2-0.2-1.6-0.7c-0.4-0.5-0.6-1.1-0.6-1.9
		c0-0.8,0.2-1.5,0.6-1.9c0.4-0.5,0.9-0.7,1.6-0.7c0.7,0,1.2,0.2,1.6,0.7C109.8,26.2,110,26.8,110,27.7z M109.1,27.7
		c0-0.6-0.1-1.1-0.3-1.4c-0.2-0.3-0.6-0.5-1-0.5c-0.4,0-0.8,0.2-1,0.5c-0.2,0.3-0.3,0.8-0.3,1.4c0,0.6,0.1,1.1,0.3,1.4
		c0.2,0.3,0.6,0.5,1,0.5c0.4,0,0.8-0.2,1-0.5C109,28.8,109.1,28.3,109.1,27.7z"/>
	<path d="M115.1,30.1h-0.8v-2.8c0-0.2,0-0.4,0-0.6c0-0.2-0.1-0.4-0.1-0.5c-0.1-0.1-0.2-0.2-0.3-0.3c-0.1-0.1-0.3-0.1-0.5-0.1
		c-0.2,0-0.4,0.1-0.6,0.2c-0.2,0.1-0.4,0.3-0.6,0.4v3.7h-0.8v-4.9h0.8v0.5c0.2-0.2,0.5-0.4,0.7-0.5s0.5-0.2,0.8-0.2
		c0.5,0,0.9,0.2,1.1,0.5c0.3,0.3,0.4,0.8,0.4,1.4V30.1z"/>
	<path d="M118.1,30.2c-0.3,0-0.6,0-0.9-0.1c-0.3-0.1-0.5-0.2-0.7-0.3v-0.9h0c0.1,0.1,0.2,0.1,0.2,0.2c0.1,0.1,0.2,0.1,0.4,0.2
		c0.1,0.1,0.3,0.1,0.5,0.2c0.2,0.1,0.3,0.1,0.5,0.1c0.1,0,0.3,0,0.4,0c0.1,0,0.3-0.1,0.3-0.1c0.1-0.1,0.2-0.1,0.2-0.2
		c0-0.1,0.1-0.2,0.1-0.3c0-0.2-0.1-0.3-0.2-0.4c-0.1-0.1-0.3-0.2-0.6-0.2c-0.1,0-0.2-0.1-0.4-0.1c-0.2,0-0.3-0.1-0.5-0.1
		c-0.4-0.1-0.6-0.3-0.8-0.5c-0.2-0.2-0.3-0.5-0.3-0.8c0-0.4,0.2-0.8,0.5-1.1c0.3-0.3,0.8-0.4,1.3-0.4c0.3,0,0.5,0,0.8,0.1
		c0.3,0.1,0.5,0.2,0.7,0.3v0.9h0c-0.2-0.2-0.4-0.3-0.7-0.4c-0.3-0.1-0.5-0.1-0.8-0.1c-0.3,0-0.5,0.1-0.7,0.2
		c-0.2,0.1-0.3,0.3-0.3,0.5c0,0.2,0.1,0.4,0.2,0.5c0.1,0.1,0.3,0.2,0.5,0.2c0.1,0,0.3,0.1,0.4,0.1s0.3,0.1,0.5,0.1
		c0.4,0.1,0.6,0.2,0.8,0.5c0.2,0.2,0.3,0.5,0.3,0.9c0,0.2,0,0.4-0.1,0.6c-0.1,0.2-0.2,0.4-0.4,0.5c-0.2,0.1-0.4,0.3-0.6,0.3
		C118.7,30.2,118.4,30.2,118.1,30.2z"/>
</g>
<g>
	<path class="st0" d="M14.9,29.8C6.7,29.8,0,23.1,0,14.9C0,6.7,6.7,0,14.9,0c2.6,0,5.2,0.7,7.4,2l1.2,0.7l-1.2,0.7
		c-4.1,2.4-6.7,6.8-6.7,11.5c0,4.7,2.5,9.1,6.7,11.5l1.2,0.7l-1.2,0.7C20.1,29.1,17.5,29.8,14.9,29.8z M14.9,1.6
		c-7.3,0-13.3,6-13.3,13.3c0,7.3,6,13.3,13.3,13.3c1.9,0,3.8-0.4,5.5-1.2c-3.9-2.8-6.3-7.3-6.3-12.1s2.4-9.4,6.3-12.1
		C18.6,2,16.8,1.6,14.9,1.6z"/>
</g>
<g>
	<path class="st0" d="M29,29.8c-2.6,0-5.2-0.7-7.4-2l-1.2-0.7l1.2-0.7c4.1-2.4,6.7-6.8,6.7-11.5c0-4.7-2.5-9.1-6.7-11.5l-1.2-0.7
		L21.5,2c2.3-1.3,4.8-2,7.4-2c8.2,0,14.9,6.7,14.9,14.9C43.9,23.1,37.2,29.8,29,29.8z M23.5,27c1.7,0.8,3.6,1.2,5.5,1.2
		c7.3,0,13.3-6,13.3-13.3c0-7.3-6-13.3-13.3-13.3c-1.9,0-3.8,0.4-5.5,1.2c3.9,2.8,6.3,7.3,6.3,12.1C29.8,19.7,27.4,24.3,23.5,27z"/>
</g>
<g>
	<g>
		<path class="st0" d="M29,14.9c0-5.2-2.8-9.8-7.1-12.2c-4.2,2.4-7.1,7-7.1,12.2s2.8,9.8,7.1,12.2C26.2,24.7,29,20.1,29,14.9z"/>
	</g>
	<g>
		<path class="st0" d="M21.9,28l-0.4-0.2c-4.6-2.7-7.4-7.6-7.4-12.9C14.1,9.6,17,4.7,21.5,2l0.4-0.2L22.3,2
			c4.6,2.7,7.4,7.6,7.4,12.9c0,5.3-2.9,10.2-7.4,12.9L21.9,28z M21.9,3.6c-3.9,2.4-6.3,6.7-6.3,11.3s2.4,8.9,6.3,11.3
			c3.9-2.4,6.3-6.7,6.3-11.3S25.8,6,21.9,3.6z"/>
	</g>
</g>
</svg>
